<?xml version="1.0" encoding="UTF-8"?>
<svg id="Layer_1" xmlns="http://www.w3.org/2000/svg" viewBox="0 0 543.85 543.85">
  <path d="M261.4,155.75c32.67,0,59.66,3.15,80.96,9.44,21.3,6.3,38,14.89,50.1,25.78,12.1,10.89,20.63,23.3,25.6,37.21,4.96,13.92,7.44,28.5,7.44,43.75s-2.79,29.83-8.35,43.75c-5.57,13.92-14.7,26.32-27.41,37.21-12.71,10.89-29.53,19.49-50.46,25.78-20.94,6.3-46.9,9.44-77.87,9.44H0v-232.35h261.4ZM90.76,315.49h167c13.55,0,25.05-.91,34.49-2.72,9.44-1.81,17-4.54,22.69-8.17,5.68-3.63,9.8-8.17,12.34-13.61,2.54-5.45,3.81-11.8,3.81-19.06s-1.27-13.61-3.81-19.06c-2.54-5.45-6.66-9.98-12.34-13.61-5.69-3.63-13.25-6.35-22.69-8.17-9.44-1.81-20.94-2.72-34.49-2.72H90.76v87.13Z"/>
  <path d="M282.45,388.1c-32.67,0-59.66-3.15-80.96-9.44-21.3-6.3-38-14.89-50.1-25.78-12.1-10.89-20.63-23.3-25.6-37.21-4.96-13.92-7.44-28.5-7.44-43.75s2.79-29.83,8.35-43.75c5.57-13.92,14.7-26.32,27.41-37.21,12.71-10.89,29.53-19.49,50.46-25.78,20.94-6.3,46.9-9.44,77.87-9.44h261.4v232.35h-261.4ZM453.09,228.36h-167c-13.55,0-25.05.91-34.49,2.72-9.44,1.81-17,4.54-22.69,8.17-5.68,3.63-9.8,8.17-12.34,13.61-2.54,5.45-3.81,11.8-3.81,19.06s1.27,13.61,3.81,19.06c2.54,5.45,6.66,9.98,12.34,13.61,5.69,3.63,13.25,6.35,22.69,8.17,9.44,1.81,20.94,2.72,34.49,2.72h167v-87.13Z"/>
  <path d="M155.75,282.45c0-32.67,3.15-59.66,9.44-80.96,6.3-21.3,14.89-38,25.78-50.1,10.89-12.1,23.3-20.63,37.21-25.6,13.92-4.96,28.5-7.44,43.75-7.44s29.83,2.79,43.75,8.35c13.92,5.57,26.32,14.7,37.21,27.41,10.89,12.71,19.49,29.53,25.78,50.46,6.3,20.94,9.44,46.9,9.44,77.87v261.4h-232.35v-261.4ZM315.49,453.09v-167c0-13.55-.91-25.05-2.72-34.49-1.81-9.44-4.54-17-8.17-22.69-3.63-5.68-8.17-9.8-13.61-12.34-5.45-2.54-11.8-3.81-19.06-3.81s-13.61,1.27-19.06,3.81c-5.45,2.54-9.98,6.66-13.61,12.34-3.63,5.69-6.35,13.25-8.17,22.69-1.81,9.44-2.72,20.94-2.72,34.49v167h87.13Z"/>
  <path d="M388.1,261.4c0,32.67-3.15,59.66-9.44,80.96-6.3,21.3-14.89,38-25.78,50.1-10.89,12.1-23.3,20.63-37.21,25.6-13.92,4.96-28.5,7.44-43.75,7.44s-29.83-2.79-43.75-8.35c-13.92-5.57-26.32-14.7-37.21-27.41-10.89-12.71-19.49-29.53-25.78-50.46-6.3-20.94-9.44-46.9-9.44-77.87V0h232.35v261.4ZM228.36,90.76v167c0,13.55.91,25.05,2.72,34.49,1.81,9.44,4.54,17,8.17,22.69,3.63,5.68,8.17,9.8,13.61,12.34,5.45,2.54,11.8,3.81,19.06,3.81s13.61-1.27,19.06-3.81c5.45-2.54,9.98-6.66,13.61-12.34,3.63-5.69,6.35-13.25,8.17-22.69,1.81-9.44,2.72-20.94,2.72-34.49V90.76h-87.13Z"/>
</svg>