<?xml version="1.0" encoding="UTF-8"?>
<svg id="Layer_1" xmlns="http://www.w3.org/2000/svg" viewBox="0 0 757.43 515.61">
  <path d="M697,295.67c18.81-10.72,33.59-25.78,44.34-45.12,10.72-19.34,16.08-43.75,16.08-73.31,0-44.56-11.4-79.76-34.24-105.54-22.81-25.78-53.7-44.16-92.62-55.19C591.62,5.52,547.68,0,498.82,0H140.7C62.99,0,0,62.99,0,140.7v89.26c0,79.24,65.4,142.85,144.61,140.64h0c42.95,0,74.77,1.61,95.44,4.83,20.7,3.22,34.12,9.02,40.28,17.32,6.17,8.34,9.26,20.54,9.26,36.66v62.14c0,13.29,10.77,24.06,24.06,24.06h74.18c13.29,0,24.06-10.77,24.06-24.06v-24.06c0-23.3,18.87-42.2,42.2-42.2h23.41c36.6,0,66.26,29.67,66.26,66.26h0c0,13.29,10.77,24.06,24.06,24.06h147c13.29,0,24.06-10.77,24.06-24.06v-86.31c0-23.61-6.85-41.74-20.54-54.38-13.67-12.61-37.87-21.35-72.51-26.18-19.71-2.76-29.1-2.6-29.1-2.91.22-.22,5.61-.68,15.8-2.73,24.17-4.83,45.64-12.61,64.45-23.36ZM539.5,228c-11,5.39-24.57,8.06-40.68,8.06H225.47c-13.29,0-24.06-10.77-24.06-24.06v-26.8c0-13.29,10.77-24.06,24.06-24.06h273.34c16.11,0,29.68,2.57,40.68,7.65,11.03,5.11,16.52,14.66,16.52,28.6,0,15.06-5.48,25.25-16.52,30.61Z"/>
</svg>